<?xml version="1.0" ?><svg id="Youtube" style="enable-background:new 0 0 64 48;" version="1.1" viewBox="0 0 64 48" xml:space="preserve" xmlns="http://www.w3.org/2000/svg" xmlns:xlink="http://www.w3.org/1999/xlink"><g><g id="XMLID_3_"><g><polygon points="39,23 25,30 25,16    " style="fill:#E7ECED;"/><path d="M57,47H7c-3.31,0-6-2.69-6-6V7c0-3.31,2.69-6,6-6h50c3.31,0,6,2.69,6,6v34     C63,44.31,60.31,47,57,47z M25,30l14-7l-14-7V30z" style="fill:#F23222;"/></g><g><path d="M1,41c0,3.31,2.69,6,6,6     h50c3.31,0,6-2.69,6-6V7c0-3.31-2.69-6-6-6H7C3.69,1,1,3.69,1,7V41z" style="fill:none;stroke:#000000;stroke-width:2;stroke-linejoin:round;stroke-miterlimit:10;"/><polygon points="39,23 25,30      25,16    " style="fill:none;stroke:#000000;stroke-width:2;stroke-linejoin:round;stroke-miterlimit:10;"/><line style="fill:none;stroke:#000000;stroke-width:2;stroke-linejoin:round;stroke-miterlimit:10;" x1="53" x2="55" y1="40" y2="40"/><line style="fill:none;stroke:#000000;stroke-width:2;stroke-linejoin:round;stroke-miterlimit:10;" x1="49" x2="51" y1="40" y2="40"/><polyline points="9,40 17,40      47,40    " style="fill:none;stroke:#000000;stroke-width:2;stroke-linejoin:round;stroke-miterlimit:10;"/><polyline points="17,36 17,40      17,44    " style="fill:none;stroke:#000000;stroke-width:2;stroke-linejoin:round;stroke-miterlimit:10;"/></g></g></g></svg>